<!-- icon666.com - MILLIONS vector ICONS FREE --><svg version="1.1" id="Layer_1" xmlns="http://www.w3.org/2000/svg" xmlns:xlink="http://www.w3.org/1999/xlink" x="0px" y="0px" viewBox="0 0 512 512" style="enable-background:new 0 0 512 512;" xml:space="preserve"><polygon style="fill: rgb(139, 115, 91);" points="407.371,109.41 384.783,87.805 256.325,222.104 242.858,149.464 212.125,155.162 229.697,249.943 99.27,386.299 84.693,325.255 54.291,332.514 73.553,413.185 1.231,488.796 23.82,510.401 149.284,379.233 251.227,399.178 257.229,368.503 174.945,352.404 302.624,218.921 367.846,241.933 378.246,212.456 326.328,194.139 " fill="#C06100"></polygon><path style="" d="M511.544,0.042l-0.281,1.844l-2.449,16.098c-1.396,9.179-14.962,90.23-59.941,107.724 c-4.855,1.896-10.815,3.313-17.713,3.313c-12.107,0-27.142-4.366-44.365-18.234l-2.261-1.813l-0.01-0.01l-1.438-2.48l-0.021-0.042 c-17.39-30.059-12.472-51.2-5.283-63.64C401.945,1.021,484.11,0.031,493.394,0L511.544,0.042z" fill="#84E36F"></path><path style="" d="M511.544,0.042l-0.281,1.844l-2.449,16.098c-1.396,9.179-14.962,90.23-59.941,107.724 c-4.855,1.896-10.815,3.313-17.713,3.313c-12.107,0-27.142-4.366-44.365-18.234l-2.261-1.813L511.544,0.042z" fill="#00C169"></path><path style="" d="M511.463,279.15l-1.748,0.65l-15.261,5.676c-8.702,3.237-86.142,30.738-123.277-0.088 c-4.016-3.324-8.149-7.846-11.498-13.875c-5.88-10.584-9.364-25.847-5.604-47.636l0.487-2.857l0.004-0.015l1.47-2.461l0.026-0.039 c17.832-29.799,38.701-35.766,53.067-35.522c48.257,0.832,89.023,72.179,93.559,80.278L511.463,279.15z" fill="#84E36F"></path><path style="" d="M511.463,279.15l-1.748,0.65l-15.261,5.676c-8.702,3.237-86.142,30.738-123.277-0.088 c-4.016-3.324-8.149-7.846-11.498-13.875c-5.88-10.584-9.364-25.847-5.604-47.636l0.487-2.857L511.463,279.15z" fill="#00C169"></path><path style="" d="M200.289,0.626l1.458,1.165l12.724,10.161c7.256,5.794,70.7,58.023,63.393,105.729 c-0.781,5.153-2.531,11.025-5.975,17c-6.046,10.489-17.337,21.334-37.953,29.33l-2.7,1.053l-0.015,0.004l-2.866,0.007l-0.047-0.003 c-34.727,0.054-50.586-14.764-57.774-27.205C146.403,96.069,186.579,24.388,191.188,16.33L200.289,0.626z" fill="#84E36F"></path><path style="" d="M200.289,0.626l1.458,1.165l12.724,10.161c7.256,5.794,70.7,58.023,63.393,105.729 c-0.781,5.153-2.531,11.025-5.975,17c-6.046,10.489-17.337,21.334-37.953,29.33l-2.7,1.053L200.289,0.626z" fill="#00C169"></path><path style="" d="M35.448,169.851l1.484,1.13l12.956,9.863c7.388,5.624,72.027,56.369,65.828,104.231 c-0.663,5.17-2.274,11.081-5.579,17.134c-5.801,10.626-16.837,21.731-37.263,30.202l-2.675,1.116l-0.014,0.004l-2.865,0.074 l-0.047-0.002c-34.717,0.86-50.915-13.588-58.389-25.858c-25.093-41.228,13.409-113.82,17.831-121.983L35.448,169.851z" fill="#84E36F"></path><path style="" d="M35.448,169.851l1.484,1.13l12.956,9.863c7.388,5.624,72.027,56.369,65.828,104.231 c-0.663,5.17-2.274,11.081-5.579,17.134c-5.801,10.626-16.837,21.731-37.263,30.202l-2.675,1.116L35.448,169.851z" fill="#00C169"></path><path style="" d="M420.266,323.183l-1.048,1.543l-9.145,13.472c-5.215,7.682-52.377,74.979-100.504,71.388 c-5.198-0.38-11.187-1.669-17.411-4.642c-10.926-5.216-22.613-15.634-32.181-35.569l-1.26-2.61l-0.005-0.014l-0.229-2.857 l-0.001-0.047c-2.742-34.619,10.804-51.577,22.651-59.707c39.805-27.294,114.38,7.213,122.771,11.185L420.266,323.183z" fill="#84E36F"></path><path style="" d="M420.266,323.183l-1.048,1.543l-9.145,13.472c-5.215,7.682-52.377,74.979-100.504,71.388 c-5.198-0.38-11.187-1.669-17.411-4.642c-10.926-5.216-22.613-15.634-32.181-35.569l-1.26-2.61L420.266,323.183z" fill="#00C169"></path><path style="" d="M329.627,512l-1.799-0.493l-15.706-4.296c-8.956-2.45-87.892-25.306-100.061-72.008 c-1.321-5.042-2.039-11.126-1.241-17.977c1.401-12.026,7.478-26.454,23.246-41.956l2.063-2.036l0.011-0.009l2.63-1.141l0.044-0.016 c31.87-13.793,52.299-6.461,63.824,2.119c38.703,28.836,30.175,110.564,29.132,119.788L329.627,512z" fill="#84E36F"></path><path style="" d="M329.627,512l-1.799-0.493l-15.706-4.296c-8.956-2.45-87.892-25.306-100.061-72.008 c-1.321-5.042-2.039-11.126-1.241-17.977c1.401-12.026,7.478-26.454,23.246-41.956l2.063-2.036L329.627,512z" fill="#00C169"></path></svg>